<svg width="1090" height="376" viewBox="0 0 1090 376" fill="none" xmlns="http://www.w3.org/2000/svg">
<path d="M853.438 345V333.625H856.797C858.016 333.625 858.94 333.878 859.57 334.383C860.201 334.883 860.516 335.622 860.516 336.602C860.516 337.19 860.354 337.703 860.031 338.141C859.714 338.573 859.276 338.883 858.719 339.07C859.38 339.216 859.911 339.542 860.312 340.047C860.719 340.552 860.922 341.135 860.922 341.797C860.922 342.802 860.596 343.589 859.945 344.156C859.299 344.719 858.398 345 857.242 345H853.438ZM854.398 339.531V344.188H857.281C858.104 344.188 858.755 343.979 859.234 343.562C859.719 343.141 859.961 342.557 859.961 341.812C859.961 341.109 859.729 340.555 859.266 340.148C858.807 339.737 858.172 339.531 857.359 339.531H854.398ZM854.398 338.727H857.023C857.826 338.711 858.445 338.523 858.883 338.164C859.326 337.799 859.547 337.271 859.547 336.578C859.547 335.849 859.318 335.312 858.859 334.969C858.406 334.62 857.719 334.445 856.797 334.445H854.398V338.727ZM866.305 345.156C865.586 345.156 864.935 344.979 864.352 344.625C863.773 344.271 863.323 343.779 863 343.148C862.677 342.513 862.516 341.802 862.516 341.016V340.68C862.516 339.867 862.672 339.135 862.984 338.484C863.302 337.833 863.742 337.323 864.305 336.953C864.867 336.578 865.477 336.391 866.133 336.391C867.159 336.391 867.971 336.742 868.57 337.445C869.174 338.143 869.477 339.099 869.477 340.312V340.836H863.445V341.016C863.445 341.974 863.719 342.773 864.266 343.414C864.818 344.049 865.51 344.367 866.344 344.367C866.844 344.367 867.284 344.276 867.664 344.094C868.049 343.911 868.398 343.62 868.711 343.219L869.297 343.664C868.609 344.659 867.612 345.156 866.305 345.156ZM866.133 337.188C865.43 337.188 864.836 337.445 864.352 337.961C863.872 338.477 863.581 339.169 863.477 340.039H868.547V339.938C868.521 339.125 868.289 338.464 867.852 337.953C867.414 337.443 866.841 337.188 866.133 337.188ZM874.422 344.367C875.073 344.367 875.617 344.185 876.055 343.82C876.497 343.451 876.737 342.974 876.773 342.391H877.672C877.646 342.906 877.484 343.378 877.188 343.805C876.891 344.227 876.495 344.557 876 344.797C875.51 345.036 874.984 345.156 874.422 345.156C873.312 345.156 872.432 344.771 871.781 344C871.135 343.229 870.812 342.193 870.812 340.891V340.609C870.812 339.776 870.958 339.039 871.25 338.398C871.542 337.758 871.958 337.263 872.5 336.914C873.047 336.565 873.685 336.391 874.414 336.391C875.341 336.391 876.104 336.667 876.703 337.219C877.307 337.771 877.63 338.497 877.672 339.398H876.773C876.732 338.737 876.492 338.203 876.055 337.797C875.622 337.391 875.076 337.188 874.414 337.188C873.57 337.188 872.914 337.492 872.445 338.102C871.982 338.711 871.75 339.565 871.75 340.664V340.938C871.75 342.016 871.982 342.857 872.445 343.461C872.914 344.065 873.573 344.367 874.422 344.367ZM888.117 343.734L891.477 336.547H892.633V345H891.695V338.062L888.445 345H887.781L884.469 337.906V345H883.539V336.547H884.766L888.117 343.734ZM894.625 340.648C894.625 339.836 894.781 339.104 895.094 338.453C895.411 337.802 895.857 337.297 896.43 336.938C897.008 336.573 897.661 336.391 898.391 336.391C899.516 336.391 900.427 336.786 901.125 337.578C901.823 338.365 902.172 339.409 902.172 340.711V340.906C902.172 341.724 902.013 342.461 901.695 343.117C901.383 343.768 900.94 344.271 900.367 344.625C899.794 344.979 899.141 345.156 898.406 345.156C897.286 345.156 896.375 344.763 895.672 343.977C894.974 343.185 894.625 342.138 894.625 340.836V340.648ZM895.562 340.906C895.562 341.917 895.823 342.747 896.344 343.398C896.87 344.044 897.557 344.367 898.406 344.367C899.25 344.367 899.932 344.044 900.453 343.398C900.979 342.747 901.242 341.891 901.242 340.828V340.648C901.242 340.003 901.122 339.411 900.883 338.875C900.643 338.339 900.307 337.924 899.875 337.633C899.443 337.336 898.948 337.188 898.391 337.188C897.557 337.188 896.878 337.516 896.352 338.172C895.826 338.823 895.562 339.677 895.562 340.734V340.906ZM910.398 341.094H909.273V345H908.336V341.094H907.219L904.094 345H902.906L906.406 340.664L903.297 336.547H904.43L907.203 340.258H908.336V336.547H909.273V340.258H910.414L913.188 336.547H914.336L911.211 340.664L914.719 345H913.523L910.398 341.094ZM919.336 345.156C918.617 345.156 917.966 344.979 917.383 344.625C916.805 344.271 916.354 343.779 916.031 343.148C915.708 342.513 915.547 341.802 915.547 341.016V340.68C915.547 339.867 915.703 339.135 916.016 338.484C916.333 337.833 916.773 337.323 917.336 336.953C917.898 336.578 918.508 336.391 919.164 336.391C920.19 336.391 921.003 336.742 921.602 337.445C922.206 338.143 922.508 339.099 922.508 340.312V340.836H916.477V341.016C916.477 341.974 916.75 342.773 917.297 343.414C917.849 344.049 918.542 344.367 919.375 344.367C919.875 344.367 920.315 344.276 920.695 344.094C921.081 343.911 921.43 343.62 921.742 343.219L922.328 343.664C921.641 344.659 920.643 345.156 919.336 345.156ZM919.164 337.188C918.461 337.188 917.867 337.445 917.383 337.961C916.904 338.477 916.612 339.169 916.508 340.039H921.578V339.938C921.552 339.125 921.32 338.464 920.883 337.953C920.445 337.443 919.872 337.188 919.164 337.188ZM930.305 337.344H927.227V345H926.289V337.344H923.328V336.547H930.305V337.344ZM935.539 344.211L935.953 343.672C936.609 342.781 936.987 341.479 937.086 339.766L937.234 336.547H942.227V344.211H943.102V347.484H942.172V345H935.82V347.484H934.922L934.93 344.211H935.539ZM936.617 344.211H941.289V337.422H938.125L938.023 339.617C937.93 341.633 937.461 343.164 936.617 344.211ZM944.391 340.648C944.391 339.836 944.547 339.104 944.859 338.453C945.177 337.802 945.622 337.297 946.195 336.938C946.773 336.573 947.427 336.391 948.156 336.391C949.281 336.391 950.193 336.786 950.891 337.578C951.589 338.365 951.938 339.409 951.938 340.711V340.906C951.938 341.724 951.779 342.461 951.461 343.117C951.148 343.768 950.706 344.271 950.133 344.625C949.56 344.979 948.906 345.156 948.172 345.156C947.052 345.156 946.141 344.763 945.438 343.977C944.74 343.185 944.391 342.138 944.391 340.836V340.648ZM945.328 340.906C945.328 341.917 945.589 342.747 946.109 343.398C946.635 344.044 947.323 344.367 948.172 344.367C949.016 344.367 949.698 344.044 950.219 343.398C950.745 342.747 951.008 341.891 951.008 340.828V340.648C951.008 340.003 950.888 339.411 950.648 338.875C950.409 338.339 950.073 337.924 949.641 337.633C949.208 337.336 948.714 337.188 948.156 337.188C947.323 337.188 946.643 337.516 946.117 338.172C945.591 338.823 945.328 339.677 945.328 340.734V340.906ZM957 344.367C957.651 344.367 958.195 344.185 958.633 343.82C959.076 343.451 959.315 342.974 959.352 342.391H960.25C960.224 342.906 960.062 343.378 959.766 343.805C959.469 344.227 959.073 344.557 958.578 344.797C958.089 345.036 957.562 345.156 957 345.156C955.891 345.156 955.01 344.771 954.359 344C953.714 343.229 953.391 342.193 953.391 340.891V340.609C953.391 339.776 953.536 339.039 953.828 338.398C954.12 337.758 954.536 337.263 955.078 336.914C955.625 336.565 956.263 336.391 956.992 336.391C957.919 336.391 958.682 336.667 959.281 337.219C959.885 337.771 960.208 338.497 960.25 339.398H959.352C959.31 338.737 959.07 338.203 958.633 337.797C958.201 337.391 957.654 337.188 956.992 337.188C956.148 337.188 955.492 337.492 955.023 338.102C954.56 338.711 954.328 339.565 954.328 340.664V340.938C954.328 342.016 954.56 342.857 955.023 343.461C955.492 344.065 956.151 344.367 957 344.367ZM968.195 337.344H965.117V345H964.18V337.344H961.219V336.547H968.195V337.344ZM975.289 336.547H976.227V345H975.289V338.055L970.727 345H969.797V336.547H970.727V343.5L975.289 336.547ZM984 337.352H979.727V345H978.789V336.547H984V337.352ZM990.82 345C990.727 344.734 990.667 344.341 990.641 343.82C990.312 344.247 989.893 344.578 989.383 344.812C988.878 345.042 988.341 345.156 987.773 345.156C986.961 345.156 986.302 344.93 985.797 344.477C985.297 344.023 985.047 343.451 985.047 342.758C985.047 341.935 985.388 341.284 986.07 340.805C986.758 340.326 987.714 340.086 988.938 340.086H990.633V339.125C990.633 338.521 990.445 338.047 990.07 337.703C989.701 337.354 989.159 337.18 988.445 337.18C987.794 337.18 987.255 337.346 986.828 337.68C986.401 338.013 986.188 338.414 986.188 338.883L985.25 338.875C985.25 338.203 985.562 337.622 986.188 337.133C986.812 336.638 987.581 336.391 988.492 336.391C989.435 336.391 990.177 336.628 990.719 337.102C991.266 337.57 991.547 338.227 991.562 339.07V343.07C991.562 343.888 991.648 344.5 991.82 344.906V345H990.82ZM987.883 344.328C988.508 344.328 989.065 344.177 989.555 343.875C990.049 343.573 990.409 343.169 990.633 342.664V340.805H988.961C988.029 340.815 987.299 340.987 986.773 341.32C986.247 341.648 985.984 342.102 985.984 342.68C985.984 343.154 986.159 343.547 986.508 343.859C986.862 344.172 987.32 344.328 987.883 344.328ZM1000.01 337.344H996.93V345H995.992V337.344H993.031V336.547H1000.01V337.344ZM1002.58 339.617H1005.02C1005.64 339.617 1006.19 339.732 1006.66 339.961C1007.13 340.185 1007.49 340.497 1007.73 340.898C1007.97 341.299 1008.09 341.766 1008.09 342.297C1008.09 343.115 1007.81 343.771 1007.25 344.266C1006.69 344.755 1005.94 345 1004.98 345H1001.65V336.547H1002.58V339.617ZM1002.58 340.414V344.211H1005C1005.67 344.211 1006.2 344.042 1006.58 343.703C1006.96 343.365 1007.16 342.901 1007.16 342.312C1007.16 341.75 1006.97 341.297 1006.59 340.953C1006.22 340.604 1005.72 340.424 1005.07 340.414H1002.58ZM857.422 368H856.484V357.75L853.391 358.898V358.023L857.266 356.586H857.422V368ZM869.07 368H861.945V367.281L865.844 362.859C866.49 362.115 866.938 361.5 867.188 361.016C867.438 360.531 867.562 360.06 867.562 359.602C867.562 358.883 867.352 358.315 866.93 357.898C866.508 357.477 865.927 357.266 865.188 357.266C864.422 357.266 863.802 357.51 863.328 358C862.859 358.49 862.625 359.125 862.625 359.906H861.695C861.695 359.266 861.839 358.682 862.125 358.156C862.417 357.63 862.828 357.219 863.359 356.922C863.896 356.62 864.505 356.469 865.188 356.469C866.229 356.469 867.042 356.742 867.625 357.289C868.214 357.836 868.508 358.581 868.508 359.523C868.508 360.055 868.341 360.635 868.008 361.266C867.68 361.896 867.099 362.682 866.266 363.625L863.094 367.211H869.07V368ZM877.156 364.125H875.859V368H874.914V359.547H875.859V363.297H877.141L880.242 359.547H881.422L877.953 363.648L881.805 368H880.57L877.156 364.125ZM888.422 360.352H884.148V368H883.211V359.547H888.422V360.352ZM889.711 370.125L889.156 369.719C889.63 369.083 889.875 368.424 889.891 367.742V366.531H890.805V367.508C890.805 368.591 890.44 369.464 889.711 370.125ZM902.195 368C902.102 367.734 902.042 367.341 902.016 366.82C901.688 367.247 901.268 367.578 900.758 367.812C900.253 368.042 899.716 368.156 899.148 368.156C898.336 368.156 897.677 367.93 897.172 367.477C896.672 367.023 896.422 366.451 896.422 365.758C896.422 364.935 896.763 364.284 897.445 363.805C898.133 363.326 899.089 363.086 900.312 363.086H902.008V362.125C902.008 361.521 901.82 361.047 901.445 360.703C901.076 360.354 900.534 360.18 899.82 360.18C899.169 360.18 898.63 360.346 898.203 360.68C897.776 361.013 897.562 361.414 897.562 361.883L896.625 361.875C896.625 361.203 896.938 360.622 897.562 360.133C898.188 359.638 898.956 359.391 899.867 359.391C900.81 359.391 901.552 359.628 902.094 360.102C902.641 360.57 902.922 361.227 902.938 362.07V366.07C902.938 366.888 903.023 367.5 903.195 367.906V368H902.195ZM899.258 367.328C899.883 367.328 900.44 367.177 900.93 366.875C901.424 366.573 901.784 366.169 902.008 365.664V363.805H900.336C899.404 363.815 898.674 363.987 898.148 364.32C897.622 364.648 897.359 365.102 897.359 365.68C897.359 366.154 897.534 366.547 897.883 366.859C898.237 367.172 898.695 367.328 899.258 367.328ZM909.133 367.211L909.547 366.672C910.203 365.781 910.581 364.479 910.68 362.766L910.828 359.547H915.82V367.211H916.695V370.484H915.766V368H909.414V370.484H908.516L908.523 367.211H909.133ZM910.211 367.211H914.883V360.422H911.719L911.617 362.617C911.523 364.633 911.055 366.164 910.211 367.211ZM925 359.547V368H924.062V360.352H920.602L920.453 363.516C920.391 364.688 920.273 365.583 920.102 366.203C919.93 366.818 919.674 367.271 919.336 367.562C918.997 367.854 918.547 368 917.984 368H917.625V367.172L917.914 367.156C918.451 367.146 918.836 366.885 919.07 366.375C919.305 365.865 919.458 364.953 919.531 363.641L919.703 359.547H925ZM933.07 359.547H934.008V368H933.07V361.055L928.508 368H927.578V359.547H928.508V366.5L933.07 359.547ZM943.008 368H942.07V364.125H937.516V368H936.578V359.547H937.516V363.336H942.07V359.547H943.008V368ZM950.852 368C950.758 367.734 950.698 367.341 950.672 366.82C950.344 367.247 949.924 367.578 949.414 367.812C948.909 368.042 948.372 368.156 947.805 368.156C946.992 368.156 946.333 367.93 945.828 367.477C945.328 367.023 945.078 366.451 945.078 365.758C945.078 364.935 945.419 364.284 946.102 363.805C946.789 363.326 947.745 363.086 948.969 363.086H950.664V362.125C950.664 361.521 950.477 361.047 950.102 360.703C949.732 360.354 949.19 360.18 948.477 360.18C947.826 360.18 947.286 360.346 946.859 360.68C946.432 361.013 946.219 361.414 946.219 361.883L945.281 361.875C945.281 361.203 945.594 360.622 946.219 360.133C946.844 359.638 947.612 359.391 948.523 359.391C949.466 359.391 950.208 359.628 950.75 360.102C951.297 360.57 951.578 361.227 951.594 362.07V366.07C951.594 366.888 951.68 367.5 951.852 367.906V368H950.852ZM947.914 367.328C948.539 367.328 949.096 367.177 949.586 366.875C950.081 366.573 950.44 366.169 950.664 365.664V363.805H948.992C948.06 363.815 947.331 363.987 946.805 364.32C946.279 364.648 946.016 365.102 946.016 365.68C946.016 366.154 946.19 366.547 946.539 366.859C946.893 367.172 947.352 367.328 947.914 367.328ZM962.188 368H961.25V357.75L958.156 358.898V358.023L962.031 356.586H962.188V368ZM975.43 366.734L978.789 359.547H979.945V368H979.008V361.062L975.758 368H975.094L971.781 360.906V368H970.852V359.547H972.078L975.43 366.734Z" fill="white"/>
<path d="M890.438 125V113.625H893.797C895.016 113.625 895.94 113.878 896.57 114.383C897.201 114.883 897.516 115.622 897.516 116.602C897.516 117.19 897.354 117.703 897.031 118.141C896.714 118.573 896.276 118.883 895.719 119.07C896.38 119.216 896.911 119.542 897.312 120.047C897.719 120.552 897.922 121.135 897.922 121.797C897.922 122.802 897.596 123.589 896.945 124.156C896.299 124.719 895.398 125 894.242 125H890.438ZM891.398 119.531V124.188H894.281C895.104 124.188 895.755 123.979 896.234 123.562C896.719 123.141 896.961 122.557 896.961 121.812C896.961 121.109 896.729 120.555 896.266 120.148C895.807 119.737 895.172 119.531 894.359 119.531H891.398ZM891.398 118.727H894.023C894.826 118.711 895.445 118.523 895.883 118.164C896.326 117.799 896.547 117.271 896.547 116.578C896.547 115.849 896.318 115.312 895.859 114.969C895.406 114.62 894.719 114.445 893.797 114.445H891.398V118.727ZM901.062 119.617H903.5C904.125 119.617 904.672 119.732 905.141 119.961C905.615 120.185 905.971 120.497 906.211 120.898C906.456 121.299 906.578 121.766 906.578 122.297C906.578 123.115 906.297 123.771 905.734 124.266C905.177 124.755 904.422 125 903.469 125H900.133V116.547H901.062V119.617ZM901.062 120.414V124.211H903.484C904.156 124.211 904.682 124.042 905.062 123.703C905.448 123.365 905.641 122.901 905.641 122.312C905.641 121.75 905.453 121.297 905.078 120.953C904.708 120.604 904.201 120.424 903.555 120.414H901.062ZM909.445 125H908.508V116.547H909.445V125ZM918.539 125H917.602V117.352H913.047V125H912.109V116.547H918.539V125ZM920.531 120.648C920.531 119.836 920.688 119.104 921 118.453C921.318 117.802 921.763 117.297 922.336 116.938C922.914 116.573 923.568 116.391 924.297 116.391C925.422 116.391 926.333 116.786 927.031 117.578C927.729 118.365 928.078 119.409 928.078 120.711V120.906C928.078 121.724 927.919 122.461 927.602 123.117C927.289 123.768 926.846 124.271 926.273 124.625C925.701 124.979 925.047 125.156 924.312 125.156C923.193 125.156 922.281 124.763 921.578 123.977C920.88 123.185 920.531 122.138 920.531 120.836V120.648ZM921.469 120.906C921.469 121.917 921.729 122.747 922.25 123.398C922.776 124.044 923.464 124.367 924.312 124.367C925.156 124.367 925.839 124.044 926.359 123.398C926.885 122.747 927.148 121.891 927.148 120.828V120.648C927.148 120.003 927.029 119.411 926.789 118.875C926.549 118.339 926.214 117.924 925.781 117.633C925.349 117.336 924.854 117.188 924.297 117.188C923.464 117.188 922.784 117.516 922.258 118.172C921.732 118.823 921.469 119.677 921.469 120.734V120.906ZM936.391 116.547V125H935.453V117.352H931.992L931.844 120.516C931.781 121.688 931.664 122.583 931.492 123.203C931.32 123.818 931.065 124.271 930.727 124.562C930.388 124.854 929.938 125 929.375 125H929.016V124.172L929.305 124.156C929.841 124.146 930.227 123.885 930.461 123.375C930.695 122.865 930.849 121.953 930.922 120.641L931.094 116.547H936.391ZM945.398 125H944.461V121.125H939.906V125H938.969V116.547H939.906V120.336H944.461V116.547H945.398V125ZM954.07 116.547V125H953.133V121.594H950.508L948.445 125H947.414L949.539 121.477C948.961 121.326 948.51 121.034 948.188 120.602C947.87 120.169 947.711 119.659 947.711 119.07C947.711 118.305 947.984 117.693 948.531 117.234C949.083 116.776 949.828 116.547 950.766 116.547H954.07ZM948.648 119.086C948.648 119.581 948.805 119.987 949.117 120.305C949.435 120.622 949.875 120.786 950.438 120.797H953.133V117.344H950.742C950.091 117.344 949.578 117.5 949.203 117.812C948.833 118.125 948.648 118.549 948.648 119.086ZM959.867 125.156C959.148 125.156 958.497 124.979 957.914 124.625C957.336 124.271 956.885 123.779 956.562 123.148C956.24 122.513 956.078 121.802 956.078 121.016V120.68C956.078 119.867 956.234 119.135 956.547 118.484C956.865 117.833 957.305 117.323 957.867 116.953C958.43 116.578 959.039 116.391 959.695 116.391C960.721 116.391 961.534 116.742 962.133 117.445C962.737 118.143 963.039 119.099 963.039 120.312V120.836H957.008V121.016C957.008 121.974 957.281 122.773 957.828 123.414C958.38 124.049 959.073 124.367 959.906 124.367C960.406 124.367 960.846 124.276 961.227 124.094C961.612 123.911 961.961 123.62 962.273 123.219L962.859 123.664C962.172 124.659 961.174 125.156 959.867 125.156ZM959.695 117.188C958.992 117.188 958.398 117.445 957.914 117.961C957.435 118.477 957.143 119.169 957.039 120.039H962.109V119.938C962.083 119.125 961.852 118.464 961.414 117.953C960.977 117.443 960.404 117.188 959.695 117.188ZM970.836 117.344H967.758V125H966.82V117.344H963.859V116.547H970.836V117.344ZM978.562 121.125H977.266V125H976.32V116.547H977.266V120.297H978.547L981.648 116.547H982.828L979.359 120.648L983.211 125H981.977L978.562 121.125ZM983.875 120.648C983.875 119.836 984.031 119.104 984.344 118.453C984.661 117.802 985.107 117.297 985.68 116.938C986.258 116.573 986.911 116.391 987.641 116.391C988.766 116.391 989.677 116.786 990.375 117.578C991.073 118.365 991.422 119.409 991.422 120.711V120.906C991.422 121.724 991.263 122.461 990.945 123.117C990.633 123.768 990.19 124.271 989.617 124.625C989.044 124.979 988.391 125.156 987.656 125.156C986.536 125.156 985.625 124.763 984.922 123.977C984.224 123.185 983.875 122.138 983.875 120.836V120.648ZM984.812 120.906C984.812 121.917 985.073 122.747 985.594 123.398C986.12 124.044 986.807 124.367 987.656 124.367C988.5 124.367 989.182 124.044 989.703 123.398C990.229 122.747 990.492 121.891 990.492 120.828V120.648C990.492 120.003 990.372 119.411 990.133 118.875C989.893 118.339 989.557 117.924 989.125 117.633C988.693 117.336 988.198 117.188 987.641 117.188C986.807 117.188 986.128 117.516 985.602 118.172C985.076 118.823 984.812 119.677 984.812 120.734V120.906ZM998.039 123.734L1001.4 116.547H1002.55V125H1001.62V118.062L998.367 125H997.703L994.391 117.906V125H993.461V116.547H994.688L998.039 123.734ZM1010.4 125C1010.3 124.734 1010.24 124.341 1010.22 123.82C1009.89 124.247 1009.47 124.578 1008.96 124.812C1008.46 125.042 1007.92 125.156 1007.35 125.156C1006.54 125.156 1005.88 124.93 1005.38 124.477C1004.88 124.023 1004.62 123.451 1004.62 122.758C1004.62 121.935 1004.97 121.284 1005.65 120.805C1006.34 120.326 1007.29 120.086 1008.52 120.086H1010.21V119.125C1010.21 118.521 1010.02 118.047 1009.65 117.703C1009.28 117.354 1008.74 117.18 1008.02 117.18C1007.37 117.18 1006.83 117.346 1006.41 117.68C1005.98 118.013 1005.77 118.414 1005.77 118.883L1004.83 118.875C1004.83 118.203 1005.14 117.622 1005.77 117.133C1006.39 116.638 1007.16 116.391 1008.07 116.391C1009.01 116.391 1009.76 116.628 1010.3 117.102C1010.84 117.57 1011.12 118.227 1011.14 119.07V123.07C1011.14 123.888 1011.23 124.5 1011.4 124.906V125H1010.4ZM1007.46 124.328C1008.09 124.328 1008.64 124.177 1009.13 123.875C1009.63 123.573 1009.99 123.169 1010.21 122.664V120.805H1008.54C1007.61 120.815 1006.88 120.987 1006.35 121.32C1005.83 121.648 1005.56 122.102 1005.56 122.68C1005.56 123.154 1005.74 123.547 1006.09 123.859C1006.44 124.172 1006.9 124.328 1007.46 124.328ZM1020.13 125H1019.2V121.125H1014.64V125H1013.7V116.547H1014.64V120.336H1019.2V116.547H1020.13V125ZM1022.45 124.211L1022.86 123.672C1023.52 122.781 1023.89 121.479 1023.99 119.766L1024.14 116.547H1029.13V124.211H1030.01V127.484H1029.08V125H1022.73V127.484H1021.83L1021.84 124.211H1022.45ZM1023.52 124.211H1028.2V117.422H1025.03L1024.93 119.617C1024.84 121.633 1024.37 123.164 1023.52 124.211ZM1032.84 119.617H1035.28C1035.91 119.617 1036.45 119.732 1036.92 119.961C1037.4 120.185 1037.75 120.497 1037.99 120.898C1038.24 121.299 1038.36 121.766 1038.36 122.297C1038.36 123.115 1038.08 123.771 1037.52 124.266C1036.96 124.755 1036.2 125 1035.25 125H1031.91V116.547H1032.84V119.617ZM1032.84 120.414V124.211H1035.27C1035.94 124.211 1036.46 124.042 1036.84 123.703C1037.23 123.365 1037.42 122.901 1037.42 122.312C1037.42 121.75 1037.23 121.297 1036.86 120.953C1036.49 120.604 1035.98 120.424 1035.34 120.414H1032.84ZM1041.23 125H1040.29V116.547H1041.23V125ZM1050.02 121.125H1048.72V125H1047.77V116.547H1048.72V120.297H1050L1053.1 116.547H1054.28L1050.81 120.648L1054.66 125H1053.43L1050.02 121.125ZM1061.35 125C1061.26 124.734 1061.2 124.341 1061.17 123.82C1060.84 124.247 1060.42 124.578 1059.91 124.812C1059.41 125.042 1058.87 125.156 1058.3 125.156C1057.49 125.156 1056.83 124.93 1056.33 124.477C1055.83 124.023 1055.58 123.451 1055.58 122.758C1055.58 121.935 1055.92 121.284 1056.6 120.805C1057.29 120.326 1058.24 120.086 1059.47 120.086H1061.16V119.125C1061.16 118.521 1060.98 118.047 1060.6 117.703C1060.23 117.354 1059.69 117.18 1058.98 117.18C1058.33 117.18 1057.79 117.346 1057.36 117.68C1056.93 118.013 1056.72 118.414 1056.72 118.883L1055.78 118.875C1055.78 118.203 1056.09 117.622 1056.72 117.133C1057.34 116.638 1058.11 116.391 1059.02 116.391C1059.97 116.391 1060.71 116.628 1061.25 117.102C1061.8 117.57 1062.08 118.227 1062.09 119.07V123.07C1062.09 123.888 1062.18 124.5 1062.35 124.906V125H1061.35ZM1058.41 124.328C1059.04 124.328 1059.6 124.177 1060.09 123.875C1060.58 123.573 1060.94 123.169 1061.16 122.664V120.805H1059.49C1058.56 120.815 1057.83 120.987 1057.3 121.32C1056.78 121.648 1056.52 122.102 1056.52 122.68C1056.52 123.154 1056.69 123.547 1057.04 123.859C1057.39 124.172 1057.85 124.328 1058.41 124.328ZM1066.89 121.125H1065.59V125H1064.65V116.547H1065.59V120.297H1066.88L1069.98 116.547H1071.16L1067.69 120.648L1071.54 125H1070.3L1066.89 121.125ZM890.023 148.211L890.438 147.672C891.094 146.781 891.471 145.479 891.57 143.766L891.719 140.547H896.711V148.211H897.586V151.484H896.656V149H890.305V151.484H889.406L889.414 148.211H890.023ZM891.102 148.211H895.773V141.422H892.609L892.508 143.617C892.414 145.633 891.945 147.164 891.102 148.211ZM906.188 144.859C906.188 146.177 905.896 147.224 905.312 148C904.729 148.771 903.948 149.156 902.969 149.156C901.812 149.156 900.927 148.75 900.312 147.938V152.25H899.383V140.547H900.25L900.297 141.742C900.906 140.841 901.789 140.391 902.945 140.391C903.956 140.391 904.747 140.773 905.32 141.539C905.898 142.305 906.188 143.367 906.188 144.727V144.859ZM905.25 144.695C905.25 143.617 905.029 142.766 904.586 142.141C904.143 141.516 903.526 141.203 902.734 141.203C902.161 141.203 901.669 141.341 901.258 141.617C900.846 141.893 900.531 142.294 900.312 142.82V146.875C900.536 147.359 900.857 147.729 901.273 147.984C901.69 148.24 902.182 148.367 902.75 148.367C903.536 148.367 904.148 148.055 904.586 147.43C905.029 146.799 905.25 145.888 905.25 144.695ZM911.539 149.156C910.82 149.156 910.169 148.979 909.586 148.625C909.008 148.271 908.557 147.779 908.234 147.148C907.911 146.513 907.75 145.802 907.75 145.016V144.68C907.75 143.867 907.906 143.135 908.219 142.484C908.536 141.833 908.977 141.323 909.539 140.953C910.102 140.578 910.711 140.391 911.367 140.391C912.393 140.391 913.206 140.742 913.805 141.445C914.409 142.143 914.711 143.099 914.711 144.312V144.836H908.68V145.016C908.68 145.974 908.953 146.773 909.5 147.414C910.052 148.049 910.745 148.367 911.578 148.367C912.078 148.367 912.518 148.276 912.898 148.094C913.284 147.911 913.633 147.62 913.945 147.219L914.531 147.664C913.844 148.659 912.846 149.156 911.539 149.156ZM911.367 141.188C910.664 141.188 910.07 141.445 909.586 141.961C909.107 142.477 908.815 143.169 908.711 144.039H913.781V143.938C913.755 143.125 913.523 142.464 913.086 141.953C912.648 141.443 912.076 141.188 911.367 141.188ZM919.656 148.367C920.307 148.367 920.852 148.185 921.289 147.82C921.732 147.451 921.971 146.974 922.008 146.391H922.906C922.88 146.906 922.719 147.378 922.422 147.805C922.125 148.227 921.729 148.557 921.234 148.797C920.745 149.036 920.219 149.156 919.656 149.156C918.547 149.156 917.667 148.771 917.016 148C916.37 147.229 916.047 146.193 916.047 144.891V144.609C916.047 143.776 916.193 143.039 916.484 142.398C916.776 141.758 917.193 141.263 917.734 140.914C918.281 140.565 918.919 140.391 919.648 140.391C920.576 140.391 921.339 140.667 921.938 141.219C922.542 141.771 922.865 142.497 922.906 143.398H922.008C921.966 142.737 921.727 142.203 921.289 141.797C920.857 141.391 920.31 141.188 919.648 141.188C918.805 141.188 918.148 141.492 917.68 142.102C917.216 142.711 916.984 143.565 916.984 144.664V144.938C916.984 146.016 917.216 146.857 917.68 147.461C918.148 148.065 918.807 148.367 919.656 148.367ZM927.906 148.367C928.557 148.367 929.102 148.185 929.539 147.82C929.982 147.451 930.221 146.974 930.258 146.391H931.156C931.13 146.906 930.969 147.378 930.672 147.805C930.375 148.227 929.979 148.557 929.484 148.797C928.995 149.036 928.469 149.156 927.906 149.156C926.797 149.156 925.917 148.771 925.266 148C924.62 147.229 924.297 146.193 924.297 144.891V144.609C924.297 143.776 924.443 143.039 924.734 142.398C925.026 141.758 925.443 141.263 925.984 140.914C926.531 140.565 927.169 140.391 927.898 140.391C928.826 140.391 929.589 140.667 930.188 141.219C930.792 141.771 931.115 142.497 931.156 143.398H930.258C930.216 142.737 929.977 142.203 929.539 141.797C929.107 141.391 928.56 141.188 927.898 141.188C927.055 141.188 926.398 141.492 925.93 142.102C925.466 142.711 925.234 143.565 925.234 144.664V144.938C925.234 146.016 925.466 146.857 925.93 147.461C926.398 148.065 927.057 148.367 927.906 148.367ZM938.586 140.547H939.523V149H938.586V142.055L934.023 149H933.094V140.547H934.023V147.5L938.586 140.547ZM948.828 144.859C948.828 146.177 948.536 147.224 947.953 148C947.37 148.771 946.589 149.156 945.609 149.156C944.453 149.156 943.568 148.75 942.953 147.938V152.25H942.023V140.547H942.891L942.938 141.742C943.547 140.841 944.43 140.391 945.586 140.391C946.596 140.391 947.388 140.773 947.961 141.539C948.539 142.305 948.828 143.367 948.828 144.727V144.859ZM947.891 144.695C947.891 143.617 947.669 142.766 947.227 142.141C946.784 141.516 946.167 141.203 945.375 141.203C944.802 141.203 944.31 141.341 943.898 141.617C943.487 141.893 943.172 142.294 942.953 142.82V146.875C943.177 147.359 943.497 147.729 943.914 147.984C944.331 148.24 944.823 148.367 945.391 148.367C946.177 148.367 946.789 148.055 947.227 147.43C947.669 146.799 947.891 145.888 947.891 144.695ZM950.391 144.648C950.391 143.836 950.547 143.104 950.859 142.453C951.177 141.802 951.622 141.297 952.195 140.938C952.773 140.573 953.427 140.391 954.156 140.391C955.281 140.391 956.193 140.786 956.891 141.578C957.589 142.365 957.938 143.409 957.938 144.711V144.906C957.938 145.724 957.779 146.461 957.461 147.117C957.148 147.768 956.706 148.271 956.133 148.625C955.56 148.979 954.906 149.156 954.172 149.156C953.052 149.156 952.141 148.763 951.438 147.977C950.74 147.185 950.391 146.138 950.391 144.836V144.648ZM951.328 144.906C951.328 145.917 951.589 146.747 952.109 147.398C952.635 148.044 953.323 148.367 954.172 148.367C955.016 148.367 955.698 148.044 956.219 147.398C956.745 146.747 957.008 145.891 957.008 144.828V144.648C957.008 144.003 956.888 143.411 956.648 142.875C956.409 142.339 956.073 141.924 955.641 141.633C955.208 141.336 954.714 141.188 954.156 141.188C953.323 141.188 952.643 141.516 952.117 142.172C951.591 142.823 951.328 143.677 951.328 144.734V144.906ZM959.977 149V140.547H963.078C964.151 140.547 964.974 140.74 965.547 141.125C966.12 141.505 966.406 142.065 966.406 142.805C966.406 143.227 966.279 143.604 966.023 143.938C965.768 144.266 965.396 144.505 964.906 144.656C965.458 144.76 965.901 144.997 966.234 145.367C966.573 145.737 966.742 146.167 966.742 146.656C966.742 147.401 966.466 147.979 965.914 148.391C965.367 148.797 964.591 149 963.586 149H959.977ZM960.906 145.109V148.219H963.617C964.32 148.219 964.862 148.083 965.242 147.812C965.622 147.542 965.812 147.151 965.812 146.641C965.812 146.172 965.622 145.799 965.242 145.523C964.862 145.247 964.32 145.109 963.617 145.109H960.906ZM960.906 144.328H963.273C964.742 144.307 965.477 143.807 965.477 142.828C965.477 142.312 965.273 141.938 964.867 141.703C964.466 141.464 963.87 141.344 963.078 141.344H960.906V144.328ZM974.164 149C974.07 148.734 974.01 148.341 973.984 147.82C973.656 148.247 973.237 148.578 972.727 148.812C972.221 149.042 971.685 149.156 971.117 149.156C970.305 149.156 969.646 148.93 969.141 148.477C968.641 148.023 968.391 147.451 968.391 146.758C968.391 145.935 968.732 145.284 969.414 144.805C970.102 144.326 971.057 144.086 972.281 144.086H973.977V143.125C973.977 142.521 973.789 142.047 973.414 141.703C973.044 141.354 972.503 141.18 971.789 141.18C971.138 141.18 970.599 141.346 970.172 141.68C969.745 142.013 969.531 142.414 969.531 142.883L968.594 142.875C968.594 142.203 968.906 141.622 969.531 141.133C970.156 140.638 970.924 140.391 971.836 140.391C972.779 140.391 973.521 140.628 974.062 141.102C974.609 141.57 974.891 142.227 974.906 143.07V147.07C974.906 147.888 974.992 148.5 975.164 148.906V149H974.164ZM971.227 148.328C971.852 148.328 972.409 148.177 972.898 147.875C973.393 147.573 973.753 147.169 973.977 146.664V144.805H972.305C971.372 144.815 970.643 144.987 970.117 145.32C969.591 145.648 969.328 146.102 969.328 146.68C969.328 147.154 969.503 147.547 969.852 147.859C970.206 148.172 970.664 148.328 971.227 148.328ZM983.898 149H982.961V145.125H978.406V149H977.469V140.547H978.406V144.336H982.961V140.547H983.898V149ZM992.898 149H991.961V145.125H987.406V149H986.469V140.547H987.406V144.336H991.961V140.547H992.898V149ZM1000.74 149C1000.65 148.734 1000.59 148.341 1000.56 147.82C1000.23 148.247 999.815 148.578 999.305 148.812C998.799 149.042 998.263 149.156 997.695 149.156C996.883 149.156 996.224 148.93 995.719 148.477C995.219 148.023 994.969 147.451 994.969 146.758C994.969 145.935 995.31 145.284 995.992 144.805C996.68 144.326 997.635 144.086 998.859 144.086H1000.55V143.125C1000.55 142.521 1000.37 142.047 999.992 141.703C999.622 141.354 999.081 141.18 998.367 141.18C997.716 141.18 997.177 141.346 996.75 141.68C996.323 142.013 996.109 142.414 996.109 142.883L995.172 142.875C995.172 142.203 995.484 141.622 996.109 141.133C996.734 140.638 997.503 140.391 998.414 140.391C999.357 140.391 1000.1 140.628 1000.64 141.102C1001.19 141.57 1001.47 142.227 1001.48 143.07V147.07C1001.48 147.888 1001.57 148.5 1001.74 148.906V149H1000.74ZM997.805 148.328C998.43 148.328 998.987 148.177 999.477 147.875C999.971 147.573 1000.33 147.169 1000.55 146.664V144.805H998.883C997.951 144.815 997.221 144.987 996.695 145.32C996.169 145.648 995.906 146.102 995.906 146.68C995.906 147.154 996.081 147.547 996.43 147.859C996.784 148.172 997.242 148.328 997.805 148.328ZM1010.15 140.547V149H1009.21V145.594H1006.59L1004.52 149H1003.49L1005.62 145.477C1005.04 145.326 1004.59 145.034 1004.27 144.602C1003.95 144.169 1003.79 143.659 1003.79 143.07C1003.79 142.305 1004.06 141.693 1004.61 141.234C1005.16 140.776 1005.91 140.547 1006.84 140.547H1010.15ZM1004.73 143.086C1004.73 143.581 1004.88 143.987 1005.2 144.305C1005.51 144.622 1005.95 144.786 1006.52 144.797H1009.21V141.344H1006.82C1006.17 141.344 1005.66 141.5 1005.28 141.812C1004.91 142.125 1004.73 142.549 1004.73 143.086ZM1019.69 148.367C1020.34 148.367 1020.88 148.185 1021.32 147.82C1021.76 147.451 1022 146.974 1022.04 146.391H1022.94C1022.91 146.906 1022.75 147.378 1022.45 147.805C1022.16 148.227 1021.76 148.557 1021.27 148.797C1020.78 149.036 1020.25 149.156 1019.69 149.156C1018.58 149.156 1017.7 148.771 1017.05 148C1016.4 147.229 1016.08 146.193 1016.08 144.891V144.609C1016.08 143.776 1016.22 143.039 1016.52 142.398C1016.81 141.758 1017.22 141.263 1017.77 140.914C1018.31 140.565 1018.95 140.391 1019.68 140.391C1020.61 140.391 1021.37 140.667 1021.97 141.219C1022.57 141.771 1022.9 142.497 1022.94 143.398H1022.04C1022 142.737 1021.76 142.203 1021.32 141.797C1020.89 141.391 1020.34 141.188 1019.68 141.188C1018.84 141.188 1018.18 141.492 1017.71 142.102C1017.25 142.711 1017.02 143.565 1017.02 144.664V144.938C1017.02 146.016 1017.25 146.857 1017.71 147.461C1018.18 148.065 1018.84 148.367 1019.69 148.367ZM1024.3 144.648C1024.3 143.836 1024.45 143.104 1024.77 142.453C1025.08 141.802 1025.53 141.297 1026.1 140.938C1026.68 140.573 1027.33 140.391 1028.06 140.391C1029.19 140.391 1030.1 140.786 1030.8 141.578C1031.49 142.365 1031.84 143.409 1031.84 144.711V144.906C1031.84 145.724 1031.68 146.461 1031.37 147.117C1031.05 147.768 1030.61 148.271 1030.04 148.625C1029.47 148.979 1028.81 149.156 1028.08 149.156C1026.96 149.156 1026.05 148.763 1025.34 147.977C1024.65 147.185 1024.3 146.138 1024.3 144.836V144.648ZM1025.23 144.906C1025.23 145.917 1025.49 146.747 1026.02 147.398C1026.54 148.044 1027.23 148.367 1028.08 148.367C1028.92 148.367 1029.6 148.044 1030.12 147.398C1030.65 146.747 1030.91 145.891 1030.91 144.828V144.648C1030.91 144.003 1030.79 143.411 1030.55 142.875C1030.32 142.339 1029.98 141.924 1029.55 141.633C1029.11 141.336 1028.62 141.188 1028.06 141.188C1027.23 141.188 1026.55 141.516 1026.02 142.172C1025.5 142.823 1025.23 143.677 1025.23 144.734V144.906ZM1037.19 141.109C1038.26 141.109 1039.13 141.461 1039.8 142.164C1040.46 142.862 1040.8 143.789 1040.8 144.945V145.148C1040.8 145.914 1040.64 146.604 1040.34 147.219C1040.03 147.828 1039.6 148.305 1039.02 148.648C1038.46 148.987 1037.8 149.156 1037.06 149.156C1035.95 149.156 1035.04 148.786 1034.35 148.047C1033.66 147.302 1033.32 146.31 1033.32 145.07V144.32C1033.32 142.57 1033.65 141.172 1034.32 140.125C1034.99 139.078 1035.93 138.453 1037.16 138.25C1037.94 138.125 1038.48 137.956 1038.8 137.742C1039.11 137.529 1039.27 137.237 1039.27 136.867H1040.08C1040.08 137.305 1039.99 137.667 1039.8 137.953C1039.62 138.24 1039.35 138.471 1038.98 138.648C1038.62 138.82 1038.06 138.966 1037.31 139.086C1036.45 139.221 1035.76 139.589 1035.23 140.188C1034.71 140.781 1034.38 141.578 1034.22 142.578C1034.55 142.141 1034.97 141.786 1035.47 141.516C1035.97 141.245 1036.55 141.109 1037.19 141.109ZM1034.26 144.953V145.148C1034.26 146.102 1034.52 146.878 1035.03 147.477C1035.55 148.07 1036.22 148.367 1037.06 148.367C1037.91 148.367 1038.58 148.068 1039.09 147.469C1039.6 146.865 1039.86 146.073 1039.86 145.094V144.891C1039.86 144.01 1039.6 143.292 1039.08 142.734C1038.56 142.177 1037.89 141.898 1037.05 141.898C1036.21 141.898 1035.53 142.182 1035.02 142.75C1034.51 143.312 1034.26 144.047 1034.26 144.953ZM1047.93 149C1047.84 148.734 1047.78 148.341 1047.75 147.82C1047.42 148.247 1047 148.578 1046.49 148.812C1045.99 149.042 1045.45 149.156 1044.88 149.156C1044.07 149.156 1043.41 148.93 1042.91 148.477C1042.41 148.023 1042.16 147.451 1042.16 146.758C1042.16 145.935 1042.5 145.284 1043.18 144.805C1043.87 144.326 1044.82 144.086 1046.05 144.086H1047.74V143.125C1047.74 142.521 1047.55 142.047 1047.18 141.703C1046.81 141.354 1046.27 141.18 1045.55 141.18C1044.9 141.18 1044.36 141.346 1043.94 141.68C1043.51 142.013 1043.3 142.414 1043.3 142.883L1042.36 142.875C1042.36 142.203 1042.67 141.622 1043.3 141.133C1043.92 140.638 1044.69 140.391 1045.6 140.391C1046.54 140.391 1047.29 140.628 1047.83 141.102C1048.38 141.57 1048.66 142.227 1048.67 143.07V147.07C1048.67 147.888 1048.76 148.5 1048.93 148.906V149H1047.93ZM1044.99 148.328C1045.62 148.328 1046.17 148.177 1046.66 147.875C1047.16 147.573 1047.52 147.169 1047.74 146.664V144.805H1046.07C1045.14 144.815 1044.41 144.987 1043.88 145.32C1043.36 145.648 1043.09 146.102 1043.09 146.68C1043.09 147.154 1043.27 147.547 1043.62 147.859C1043.97 148.172 1044.43 148.328 1044.99 148.328ZM1053.47 145.125H1052.17V149H1051.23V140.547H1052.17V144.297H1053.45L1056.55 140.547H1057.73L1054.27 144.648L1058.12 149H1056.88L1053.47 145.125ZM1064.8 149C1064.71 148.734 1064.65 148.341 1064.62 147.82C1064.3 148.247 1063.88 148.578 1063.37 148.812C1062.86 149.042 1062.33 149.156 1061.76 149.156C1060.95 149.156 1060.29 148.93 1059.78 148.477C1059.28 148.023 1059.03 147.451 1059.03 146.758C1059.03 145.935 1059.37 145.284 1060.05 144.805C1060.74 144.326 1061.7 144.086 1062.92 144.086H1064.62V143.125C1064.62 142.521 1064.43 142.047 1064.05 141.703C1063.68 141.354 1063.14 141.18 1062.43 141.18C1061.78 141.18 1061.24 141.346 1060.81 141.68C1060.39 142.013 1060.17 142.414 1060.17 142.883L1059.23 142.875C1059.23 142.203 1059.55 141.622 1060.17 141.133C1060.8 140.638 1061.57 140.391 1062.48 140.391C1063.42 140.391 1064.16 140.628 1064.7 141.102C1065.25 141.57 1065.53 142.227 1065.55 143.07V147.07C1065.55 147.888 1065.63 148.5 1065.8 148.906V149H1064.8ZM1061.87 148.328C1062.49 148.328 1063.05 148.177 1063.54 147.875C1064.03 147.573 1064.39 147.169 1064.62 146.664V144.805H1062.95C1062.01 144.815 1061.28 144.987 1060.76 145.32C1060.23 145.648 1059.97 146.102 1059.97 146.68C1059.97 147.154 1060.14 147.547 1060.49 147.859C1060.85 148.172 1061.3 148.328 1061.87 148.328Z" fill="white"/>
<path d="M52.5781 302V290.625H55.9375C57.1562 290.625 58.0807 290.878 58.7109 291.383C59.3411 291.883 59.6562 292.622 59.6562 293.602C59.6562 294.19 59.4948 294.703 59.1719 295.141C58.8542 295.573 58.4167 295.883 57.8594 296.07C58.5208 296.216 59.0521 296.542 59.4531 297.047C59.8594 297.552 60.0625 298.135 60.0625 298.797C60.0625 299.802 59.737 300.589 59.0859 301.156C58.4401 301.719 57.5391 302 56.3828 302H52.5781ZM53.5391 296.531V301.188H56.4219C57.2448 301.188 57.8958 300.979 58.375 300.562C58.8594 300.141 59.1016 299.557 59.1016 298.812C59.1016 298.109 58.8698 297.555 58.4062 297.148C57.9479 296.737 57.3125 296.531 56.5 296.531H53.5391ZM53.5391 295.727H56.1641C56.9661 295.711 57.5859 295.523 58.0234 295.164C58.4661 294.799 58.6875 294.271 58.6875 293.578C58.6875 292.849 58.4583 292.312 58 291.969C57.5469 291.62 56.8594 291.445 55.9375 291.445H53.5391V295.727ZM68.6641 302H67.7266V298.125H63.1719V302H62.2344V293.547H63.1719V297.336H67.7266V293.547H68.6641V302ZM74.4453 302.156C73.7266 302.156 73.0755 301.979 72.4922 301.625C71.9141 301.271 71.4635 300.779 71.1406 300.148C70.8177 299.513 70.6562 298.802 70.6562 298.016V297.68C70.6562 296.867 70.8125 296.135 71.125 295.484C71.4427 294.833 71.8828 294.323 72.4453 293.953C73.0078 293.578 73.6172 293.391 74.2734 293.391C75.2995 293.391 76.112 293.742 76.7109 294.445C77.3151 295.143 77.6172 296.099 77.6172 297.312V297.836H71.5859V298.016C71.5859 298.974 71.8594 299.773 72.4062 300.414C72.9583 301.049 73.651 301.367 74.4844 301.367C74.9844 301.367 75.4245 301.276 75.8047 301.094C76.1901 300.911 76.5391 300.62 76.8516 300.219L77.4375 300.664C76.75 301.659 75.7526 302.156 74.4453 302.156ZM74.2734 294.188C73.5703 294.188 72.9766 294.445 72.4922 294.961C72.013 295.477 71.7214 296.169 71.6172 297.039H76.6875V296.938C76.6615 296.125 76.4297 295.464 75.9922 294.953C75.5547 294.443 74.9818 294.188 74.2734 294.188ZM80.4375 293.547V301.211H84.1953V293.547H85.1328V301.211H88.8594V293.547H89.7969V302H79.5V293.547H80.4375ZM98.6328 302H97.6953V298.125H93.1406V302H92.2031V293.547H93.1406V297.336H97.6953V293.547H98.6328V302ZM106.695 293.547H107.633V302H106.695V295.055L102.133 302H101.203V293.547H102.133V300.5L106.695 293.547ZM115.695 293.547H116.633V302H115.695V295.055L111.133 302H110.203V293.547H111.133V300.5L115.695 293.547ZM115.648 290.5C115.648 291.099 115.443 291.583 115.031 291.953C114.625 292.323 114.078 292.508 113.391 292.508C112.714 292.508 112.167 292.326 111.75 291.961C111.339 291.591 111.133 291.104 111.133 290.5H111.93C111.93 290.932 112.057 291.263 112.312 291.492C112.573 291.721 112.932 291.836 113.391 291.836C113.849 291.836 114.206 291.716 114.461 291.477C114.721 291.237 114.852 290.911 114.852 290.5H115.648ZM123.133 302V293.547H126.234C127.307 293.547 128.13 293.74 128.703 294.125C129.276 294.505 129.562 295.065 129.562 295.805C129.562 296.227 129.435 296.604 129.18 296.938C128.924 297.266 128.552 297.505 128.062 297.656C128.615 297.76 129.057 297.997 129.391 298.367C129.729 298.737 129.898 299.167 129.898 299.656C129.898 300.401 129.622 300.979 129.07 301.391C128.523 301.797 127.747 302 126.742 302H123.133ZM124.062 298.109V301.219H126.773C127.477 301.219 128.018 301.083 128.398 300.812C128.779 300.542 128.969 300.151 128.969 299.641C128.969 299.172 128.779 298.799 128.398 298.523C128.018 298.247 127.477 298.109 126.773 298.109H124.062ZM124.062 297.328H126.43C127.898 297.307 128.633 296.807 128.633 295.828C128.633 295.312 128.43 294.938 128.023 294.703C127.622 294.464 127.026 294.344 126.234 294.344H124.062V297.328ZM137.539 293.547H138.477V302H137.539V295.055L132.977 302H132.047V293.547H132.977V300.5L137.539 293.547ZM140.789 301.211L141.203 300.672C141.859 299.781 142.237 298.479 142.336 296.766L142.484 293.547H147.477V301.211H148.352V304.484H147.422V302H141.07V304.484H140.172L140.18 301.211H140.789ZM141.867 301.211H146.539V294.422H143.375L143.273 296.617C143.18 298.633 142.711 300.164 141.867 301.211ZM156.867 294.188C156.221 294.188 155.682 294.375 155.25 294.75C154.818 295.12 154.602 295.599 154.602 296.188H153.695C153.695 295.677 153.836 295.208 154.117 294.781C154.404 294.354 154.794 294.016 155.289 293.766C155.784 293.516 156.31 293.391 156.867 293.391C157.904 293.391 158.75 293.755 159.406 294.484C160.062 295.208 160.417 296.159 160.469 297.336L160.477 297.938C160.477 298.75 160.326 299.482 160.023 300.133C159.721 300.779 159.299 301.279 158.758 301.633C158.216 301.982 157.589 302.156 156.875 302.156C155.948 302.156 155.185 301.878 154.586 301.32C153.992 300.758 153.695 300.031 153.695 299.141H154.602C154.602 299.812 154.815 300.352 155.242 300.758C155.674 301.164 156.219 301.367 156.875 301.367C157.656 301.367 158.284 301.076 158.758 300.492C159.237 299.909 159.495 299.12 159.531 298.125H155.711V297.336H159.531C159.484 296.383 159.224 295.62 158.75 295.047C158.281 294.474 157.654 294.188 156.867 294.188ZM168.055 294.344H164.977V302H164.039V294.344H161.078V293.547H168.055V294.344ZM168.75 297.648C168.75 296.836 168.906 296.104 169.219 295.453C169.536 294.802 169.982 294.297 170.555 293.938C171.133 293.573 171.786 293.391 172.516 293.391C173.641 293.391 174.552 293.786 175.25 294.578C175.948 295.365 176.297 296.409 176.297 297.711V297.906C176.297 298.724 176.138 299.461 175.82 300.117C175.508 300.768 175.065 301.271 174.492 301.625C173.919 301.979 173.266 302.156 172.531 302.156C171.411 302.156 170.5 301.763 169.797 300.977C169.099 300.185 168.75 299.138 168.75 297.836V297.648ZM169.688 297.906C169.688 298.917 169.948 299.747 170.469 300.398C170.995 301.044 171.682 301.367 172.531 301.367C173.375 301.367 174.057 301.044 174.578 300.398C175.104 299.747 175.367 298.891 175.367 297.828V297.648C175.367 297.003 175.247 296.411 175.008 295.875C174.768 295.339 174.432 294.924 174 294.633C173.568 294.336 173.073 294.188 172.516 294.188C171.682 294.188 171.003 294.516 170.477 295.172C169.951 295.823 169.688 296.677 169.688 297.734V297.906ZM183.789 293.547H184.727V302H183.789V295.055L179.227 302H178.297V293.547H179.227V300.5L183.789 293.547ZM183.742 290.5C183.742 291.099 183.536 291.583 183.125 291.953C182.719 292.323 182.172 292.508 181.484 292.508C180.807 292.508 180.26 292.326 179.844 291.961C179.432 291.591 179.227 291.104 179.227 290.5H180.023C180.023 290.932 180.151 291.263 180.406 291.492C180.667 291.721 181.026 291.836 181.484 291.836C181.943 291.836 182.299 291.716 182.555 291.477C182.815 291.237 182.945 290.911 182.945 290.5H183.742ZM193.422 298.125H192.125V302H191.18V293.547H192.125V297.297H193.406L196.508 293.547H197.688L194.219 297.648L198.07 302H196.836L193.422 298.125ZM198.734 297.648C198.734 296.836 198.891 296.104 199.203 295.453C199.521 294.802 199.966 294.297 200.539 293.938C201.117 293.573 201.771 293.391 202.5 293.391C203.625 293.391 204.536 293.786 205.234 294.578C205.932 295.365 206.281 296.409 206.281 297.711V297.906C206.281 298.724 206.122 299.461 205.805 300.117C205.492 300.768 205.049 301.271 204.477 301.625C203.904 301.979 203.25 302.156 202.516 302.156C201.396 302.156 200.484 301.763 199.781 300.977C199.083 300.185 198.734 299.138 198.734 297.836V297.648ZM199.672 297.906C199.672 298.917 199.932 299.747 200.453 300.398C200.979 301.044 201.667 301.367 202.516 301.367C203.359 301.367 204.042 301.044 204.562 300.398C205.089 299.747 205.352 298.891 205.352 297.828V297.648C205.352 297.003 205.232 296.411 204.992 295.875C204.753 295.339 204.417 294.924 203.984 294.633C203.552 294.336 203.057 294.188 202.5 294.188C201.667 294.188 200.987 294.516 200.461 295.172C199.935 295.823 199.672 296.677 199.672 297.734V297.906ZM209.219 293.547V301.211H212.977V293.547H213.914V301.211H217.641V293.547H218.578V302H208.281V293.547H209.219ZM223.219 298.125H221.922V302H220.977V293.547H221.922V297.297H223.203L226.305 293.547H227.484L224.016 297.648L227.867 302H226.633L223.219 298.125ZM234.773 293.547H235.711V302H234.773V295.055L230.211 302H229.281V293.547H230.211V300.5L234.773 293.547ZM84.1641 325H83.2266V317.352H78.6719V325H77.7344V316.547H84.1641V325ZM86.1562 320.648C86.1562 319.836 86.3125 319.104 86.625 318.453C86.9427 317.802 87.388 317.297 87.9609 316.938C88.5391 316.573 89.1927 316.391 89.9219 316.391C91.0469 316.391 91.9583 316.786 92.6562 317.578C93.3542 318.365 93.7031 319.409 93.7031 320.711V320.906C93.7031 321.724 93.5443 322.461 93.2266 323.117C92.9141 323.768 92.4714 324.271 91.8984 324.625C91.3255 324.979 90.6719 325.156 89.9375 325.156C88.8177 325.156 87.9062 324.763 87.2031 323.977C86.5052 323.185 86.1562 322.138 86.1562 320.836V320.648ZM87.0938 320.906C87.0938 321.917 87.3542 322.747 87.875 323.398C88.401 324.044 89.0885 324.367 89.9375 324.367C90.7812 324.367 91.4635 324.044 91.9844 323.398C92.5104 322.747 92.7734 321.891 92.7734 320.828V320.648C92.7734 320.003 92.6536 319.411 92.4141 318.875C92.1745 318.339 91.8385 317.924 91.4062 317.633C90.974 317.336 90.4792 317.188 89.9219 317.188C89.0885 317.188 88.4089 317.516 87.8828 318.172C87.3568 318.823 87.0938 319.677 87.0938 320.734V320.906ZM98.125 319.977L100.406 316.547H101.516L98.6484 320.695L101.641 325H100.539L98.1328 321.422L95.7266 325H94.625L97.6094 320.695L94.7422 316.547H95.8438L98.125 319.977ZM102.578 320.648C102.578 319.836 102.734 319.104 103.047 318.453C103.365 317.802 103.81 317.297 104.383 316.938C104.961 316.573 105.615 316.391 106.344 316.391C107.469 316.391 108.38 316.786 109.078 317.578C109.776 318.365 110.125 319.409 110.125 320.711V320.906C110.125 321.724 109.966 322.461 109.648 323.117C109.336 323.768 108.893 324.271 108.32 324.625C107.747 324.979 107.094 325.156 106.359 325.156C105.24 325.156 104.328 324.763 103.625 323.977C102.927 323.185 102.578 322.138 102.578 320.836V320.648ZM103.516 320.906C103.516 321.917 103.776 322.747 104.297 323.398C104.823 324.044 105.51 324.367 106.359 324.367C107.203 324.367 107.885 324.044 108.406 323.398C108.932 322.747 109.195 321.891 109.195 320.828V320.648C109.195 320.003 109.076 319.411 108.836 318.875C108.596 318.339 108.26 317.924 107.828 317.633C107.396 317.336 106.901 317.188 106.344 317.188C105.51 317.188 104.831 317.516 104.305 318.172C103.779 318.823 103.516 319.677 103.516 320.734V320.906ZM118.352 321.094H117.227V325H116.289V321.094H115.172L112.047 325H110.859L114.359 320.664L111.25 316.547H112.383L115.156 320.258H116.289V316.547H117.227V320.258H118.367L121.141 316.547H122.289L119.164 320.664L122.672 325H121.477L118.352 321.094ZM134.555 325H133.617V321.125H129.062V325H128.125V316.547H129.062V320.336H133.617V316.547H134.555V325ZM142.398 325C142.305 324.734 142.245 324.341 142.219 323.82C141.891 324.247 141.471 324.578 140.961 324.812C140.456 325.042 139.919 325.156 139.352 325.156C138.539 325.156 137.88 324.93 137.375 324.477C136.875 324.023 136.625 323.451 136.625 322.758C136.625 321.935 136.966 321.284 137.648 320.805C138.336 320.326 139.292 320.086 140.516 320.086H142.211V319.125C142.211 318.521 142.023 318.047 141.648 317.703C141.279 317.354 140.737 317.18 140.023 317.18C139.372 317.18 138.833 317.346 138.406 317.68C137.979 318.013 137.766 318.414 137.766 318.883L136.828 318.875C136.828 318.203 137.141 317.622 137.766 317.133C138.391 316.638 139.159 316.391 140.07 316.391C141.013 316.391 141.755 316.628 142.297 317.102C142.844 317.57 143.125 318.227 143.141 319.07V323.07C143.141 323.888 143.227 324.5 143.398 324.906V325H142.398ZM139.461 324.328C140.086 324.328 140.643 324.177 141.133 323.875C141.628 323.573 141.987 323.169 142.211 322.664V320.805H140.539C139.607 320.815 138.878 320.987 138.352 321.32C137.826 321.648 137.562 322.102 137.562 322.68C137.562 323.154 137.737 323.547 138.086 323.859C138.44 324.172 138.898 324.328 139.461 324.328ZM149.336 324.211L149.75 323.672C150.406 322.781 150.784 321.479 150.883 319.766L151.031 316.547H156.023V324.211H156.898V327.484H155.969V325H149.617V327.484H148.719L148.727 324.211H149.336ZM150.414 324.211H155.086V317.422H151.922L151.82 319.617C151.727 321.633 151.258 323.164 150.414 324.211ZM164.258 316.547H165.195V325H164.258V318.055L159.695 325H158.766V316.547H159.695V323.5L164.258 316.547ZM170 321.125H168.703V325H167.758V316.547H168.703V320.297H169.984L173.086 316.547H174.266L170.797 320.648L174.648 325H173.414L170 321.125ZM178.68 323.656L181.148 316.547H182.156L178.547 326.438L178.359 326.875C177.896 327.901 177.18 328.414 176.211 328.414C175.987 328.414 175.747 328.378 175.492 328.305L175.484 327.531L175.969 327.578C176.427 327.578 176.797 327.464 177.078 327.234C177.365 327.01 177.607 326.622 177.805 326.07L178.219 324.93L175.031 316.547H176.055L178.68 323.656ZM184.641 320.398H187.055C187.081 319.628 187.258 318.935 187.586 318.32C187.914 317.701 188.359 317.224 188.922 316.891C189.484 316.557 190.115 316.391 190.812 316.391C191.932 316.391 192.841 316.786 193.539 317.578C194.242 318.37 194.594 319.417 194.594 320.719V320.906C194.594 321.719 194.435 322.453 194.117 323.109C193.799 323.766 193.354 324.271 192.781 324.625C192.208 324.979 191.557 325.156 190.828 325.156C189.75 325.156 188.865 324.792 188.172 324.062C187.479 323.328 187.107 322.372 187.055 321.195H184.641V325H183.711V316.547H184.641V320.398ZM187.977 320.906C187.977 321.917 188.237 322.747 188.758 323.398C189.284 324.044 189.974 324.367 190.828 324.367C191.667 324.367 192.346 324.044 192.867 323.398C193.393 322.747 193.656 321.891 193.656 320.828V320.648C193.656 319.648 193.393 318.823 192.867 318.172C192.341 317.516 191.656 317.188 190.812 317.188C189.974 317.188 189.292 317.516 188.766 318.172C188.24 318.823 187.977 319.677 187.977 320.734V320.906ZM207.312 320.859C207.312 322.177 207.021 323.224 206.438 324C205.854 324.771 205.073 325.156 204.094 325.156C202.938 325.156 202.052 324.75 201.438 323.938V328.25H200.508V316.547H201.375L201.422 317.742C202.031 316.841 202.914 316.391 204.07 316.391C205.081 316.391 205.872 316.773 206.445 317.539C207.023 318.305 207.312 319.367 207.312 320.727V320.859ZM206.375 320.695C206.375 319.617 206.154 318.766 205.711 318.141C205.268 317.516 204.651 317.203 203.859 317.203C203.286 317.203 202.794 317.341 202.383 317.617C201.971 317.893 201.656 318.294 201.438 318.82V322.875C201.661 323.359 201.982 323.729 202.398 323.984C202.815 324.24 203.307 324.367 203.875 324.367C204.661 324.367 205.273 324.055 205.711 323.43C206.154 322.799 206.375 321.888 206.375 320.695ZM210.422 319.617H212.859C213.484 319.617 214.031 319.732 214.5 319.961C214.974 320.185 215.331 320.497 215.57 320.898C215.815 321.299 215.938 321.766 215.938 322.297C215.938 323.115 215.656 323.771 215.094 324.266C214.536 324.755 213.781 325 212.828 325H209.492V316.547H210.422V319.617ZM210.422 320.414V324.211H212.844C213.516 324.211 214.042 324.042 214.422 323.703C214.807 323.365 215 322.901 215 322.312C215 321.75 214.812 321.297 214.438 320.953C214.068 320.604 213.56 320.424 212.914 320.414H210.422ZM218.805 325H217.867V316.547H218.805V325ZM224.531 324.367C225.182 324.367 225.727 324.185 226.164 323.82C226.607 323.451 226.846 322.974 226.883 322.391H227.781C227.755 322.906 227.594 323.378 227.297 323.805C227 324.227 226.604 324.557 226.109 324.797C225.62 325.036 225.094 325.156 224.531 325.156C223.422 325.156 222.542 324.771 221.891 324C221.245 323.229 220.922 322.193 220.922 320.891V320.609C220.922 319.776 221.068 319.039 221.359 318.398C221.651 317.758 222.068 317.263 222.609 316.914C223.156 316.565 223.794 316.391 224.523 316.391C225.451 316.391 226.214 316.667 226.812 317.219C227.417 317.771 227.74 318.497 227.781 319.398H226.883C226.841 318.737 226.602 318.203 226.164 317.797C225.732 317.391 225.185 317.188 224.523 317.188C223.68 317.188 223.023 317.492 222.555 318.102C222.091 318.711 221.859 319.565 221.859 320.664V320.938C221.859 322.016 222.091 322.857 222.555 323.461C223.023 324.065 223.682 324.367 224.531 324.367ZM230.688 319.617H233.125C233.75 319.617 234.297 319.732 234.766 319.961C235.24 320.185 235.596 320.497 235.836 320.898C236.081 321.299 236.203 321.766 236.203 322.297C236.203 323.115 235.922 323.771 235.359 324.266C234.802 324.755 234.047 325 233.094 325H229.758V316.547H230.688V319.617ZM230.688 320.414V324.211H233.109C233.781 324.211 234.307 324.042 234.688 323.703C235.073 323.365 235.266 322.901 235.266 322.312C235.266 321.75 235.078 321.297 234.703 320.953C234.333 320.604 233.826 320.424 233.18 320.414H230.688Z" fill="white"/>
<path d="M29.8154 4.04688V14H28.9746V4.76465H24.7705L24.5381 8.87988C24.4469 10.3519 24.3057 11.4229 24.1143 12.0928C23.9274 12.7581 23.6585 13.2412 23.3076 13.542C22.9613 13.8382 22.4896 13.9909 21.8926 14H21.5371V13.2891L21.8105 13.2822C22.2799 13.2594 22.6331 13.1113 22.8701 12.8379C23.1071 12.5645 23.2894 12.1224 23.417 11.5117C23.5492 10.8965 23.6517 9.94857 23.7246 8.66797L23.9707 4.04688H29.8154ZM35.0244 14.1367C34.3955 14.1367 33.8258 13.9818 33.3154 13.6719C32.8096 13.362 32.4154 12.9313 32.1328 12.3799C31.8503 11.8239 31.709 11.2018 31.709 10.5137V10.2197C31.709 9.50879 31.8457 8.86849 32.1191 8.29883C32.3971 7.72917 32.7822 7.28255 33.2744 6.95898C33.7666 6.63086 34.2998 6.4668 34.874 6.4668C35.7718 6.4668 36.4827 6.77441 37.0068 7.38965C37.5355 8.00033 37.7998 8.83659 37.7998 9.89844V10.3564H32.5225V10.5137C32.5225 11.3522 32.7617 12.0518 33.2402 12.6123C33.7233 13.1683 34.3294 13.4463 35.0586 13.4463C35.4961 13.4463 35.8812 13.3665 36.2139 13.207C36.5511 13.0475 36.8564 12.7923 37.1299 12.4414L37.6426 12.8311C37.041 13.7015 36.1683 14.1367 35.0244 14.1367ZM34.874 7.16406C34.2588 7.16406 33.7393 7.38965 33.3154 7.84082C32.8962 8.29199 32.641 8.89811 32.5498 9.65918H36.9863V9.57031C36.9635 8.85938 36.7607 8.2806 36.3779 7.83398C35.9951 7.38737 35.4938 7.16406 34.874 7.16406ZM44 7.30762H40.2607V14H39.4404V6.60352H44V7.30762ZM47.3086 10.6094H46.1738V14H45.3467V6.60352H46.1738V9.88477H47.2949L50.0088 6.60352H51.041L48.0059 10.1924L51.376 14H50.2959L47.3086 10.6094ZM51.957 10.1924C51.957 9.48145 52.0938 8.84115 52.3672 8.27148C52.6452 7.70182 53.0348 7.25977 53.5361 6.94531C54.042 6.6263 54.6139 6.4668 55.252 6.4668C56.2363 6.4668 57.0339 6.81315 57.6445 7.50586C58.2552 8.19401 58.5605 9.10775 58.5605 10.2471V10.418C58.5605 11.1335 58.4215 11.7783 58.1436 12.3525C57.8701 12.9222 57.4827 13.362 56.9814 13.6719C56.4801 13.9818 55.9082 14.1367 55.2656 14.1367C54.2858 14.1367 53.4883 13.7926 52.873 13.1045C52.2624 12.4118 51.957 11.4958 51.957 10.3564V10.1924ZM52.7773 10.418C52.7773 11.3021 53.0052 12.029 53.4609 12.5986C53.9212 13.1637 54.5228 13.4463 55.2656 13.4463C56.0039 13.4463 56.6009 13.1637 57.0566 12.5986C57.5169 12.029 57.7471 11.2793 57.7471 10.3496V10.1924C57.7471 9.62728 57.6423 9.11003 57.4326 8.64062C57.223 8.17122 56.929 7.80892 56.5508 7.55371C56.1725 7.29395 55.7396 7.16406 55.252 7.16406C54.5228 7.16406 53.9281 7.45117 53.4678 8.02539C53.0075 8.59505 52.7773 9.34245 52.7773 10.2676V10.418ZM66.0049 12.8242L68.165 6.60352H69.0469L65.8887 15.2578L65.7246 15.6406C65.319 16.5384 64.6924 16.9873 63.8447 16.9873C63.6488 16.9873 63.4391 16.9554 63.2158 16.8916L63.209 16.2148L63.6328 16.2559C64.0339 16.2559 64.3574 16.1556 64.6035 15.9551C64.8542 15.7591 65.0661 15.4196 65.2393 14.9365L65.6016 13.9385L62.8125 6.60352H63.708L66.0049 12.8242ZM75.9717 10.582H74.9873V14H74.167V10.582H73.1895L70.4551 14H69.416L72.4785 10.2061L69.7578 6.60352H70.749L73.1758 9.85059H74.167V6.60352H74.9873V9.85059H75.9854L78.4121 6.60352H79.417L76.6826 10.2061L79.752 14H78.7061L75.9717 10.582ZM85.9248 6.60352H86.7451V14H85.9248V7.92285L81.9326 14H81.1191V6.60352H81.9326V12.6875L85.9248 6.60352ZM89.0283 14V6.60352H91.7422C92.681 6.60352 93.401 6.77214 93.9023 7.10938C94.4036 7.44206 94.6543 7.93197 94.6543 8.5791C94.6543 8.94824 94.5426 9.27865 94.3193 9.57031C94.096 9.85742 93.7702 10.0671 93.3418 10.1992C93.8249 10.2904 94.2122 10.4977 94.5039 10.8213C94.8001 11.1449 94.9482 11.5208 94.9482 11.9492C94.9482 12.6009 94.7067 13.1068 94.2236 13.4668C93.7451 13.8223 93.0661 14 92.1865 14H89.0283ZM89.8418 10.5957V13.3164H92.2139C92.8291 13.3164 93.3031 13.1979 93.6357 12.9609C93.9684 12.724 94.1348 12.3822 94.1348 11.9355C94.1348 11.5254 93.9684 11.1995 93.6357 10.958C93.3031 10.7165 92.8291 10.5957 92.2139 10.5957H89.8418ZM89.8418 9.91211H91.9131C93.1982 9.89388 93.8408 9.45638 93.8408 8.59961C93.8408 8.14844 93.6631 7.82031 93.3076 7.61523C92.9567 7.4056 92.4349 7.30078 91.7422 7.30078H89.8418V9.91211ZM101.442 14C101.36 13.7676 101.308 13.4235 101.285 12.9678C100.998 13.3415 100.631 13.6309 100.185 13.8359C99.7425 14.0365 99.2731 14.1367 98.7764 14.1367C98.0654 14.1367 97.4889 13.9385 97.0469 13.542C96.6094 13.1455 96.3906 12.6442 96.3906 12.0381C96.3906 11.318 96.6891 10.7484 97.2861 10.3291C97.8877 9.90983 98.724 9.7002 99.7949 9.7002H101.278V8.85938C101.278 8.33073 101.114 7.91602 100.786 7.61523C100.463 7.3099 99.9886 7.15723 99.3643 7.15723C98.7946 7.15723 98.3229 7.30306 97.9492 7.59473C97.5755 7.88639 97.3887 8.2373 97.3887 8.64746L96.5684 8.64062C96.5684 8.05273 96.8418 7.5446 97.3887 7.11621C97.9355 6.68327 98.6077 6.4668 99.4053 6.4668C100.23 6.4668 100.88 6.67415 101.354 7.08887C101.832 7.49902 102.078 8.07324 102.092 8.81152V12.3115C102.092 13.027 102.167 13.5625 102.317 13.918V14H101.442ZM98.8721 13.4121C99.4189 13.4121 99.9066 13.2799 100.335 13.0156C100.768 12.7513 101.082 12.3981 101.278 11.9561V10.3291H99.8154C98.9997 10.3382 98.3617 10.4886 97.9014 10.7803C97.4411 11.0674 97.2109 11.4639 97.2109 11.9697C97.2109 12.3844 97.3636 12.7285 97.6689 13.002C97.9788 13.2754 98.3799 13.4121 98.8721 13.4121ZM107.144 14.1367C106.515 14.1367 105.945 13.9818 105.435 13.6719C104.929 13.362 104.535 12.9313 104.252 12.3799C103.969 11.8239 103.828 11.2018 103.828 10.5137V10.2197C103.828 9.50879 103.965 8.86849 104.238 8.29883C104.516 7.72917 104.901 7.28255 105.394 6.95898C105.886 6.63086 106.419 6.4668 106.993 6.4668C107.891 6.4668 108.602 6.77441 109.126 7.38965C109.655 8.00033 109.919 8.83659 109.919 9.89844V10.3564H104.642V10.5137C104.642 11.3522 104.881 12.0518 105.359 12.6123C105.842 13.1683 106.449 13.4463 107.178 13.4463C107.615 13.4463 108 13.3665 108.333 13.207C108.67 13.0475 108.976 12.7923 109.249 12.4414L109.762 12.8311C109.16 13.7015 108.287 14.1367 107.144 14.1367ZM106.993 7.16406C106.378 7.16406 105.858 7.38965 105.435 7.84082C105.015 8.29199 104.76 8.89811 104.669 9.65918H109.105V9.57031C109.083 8.85938 108.88 8.2806 108.497 7.83398C108.114 7.38737 107.613 7.16406 106.993 7.16406ZM116.741 7.30078H114.048V14H113.228V7.30078H110.637V6.60352H116.741V7.30078ZM120.275 13.4463C120.845 13.4463 121.321 13.2868 121.704 12.9678C122.091 12.6442 122.301 12.2272 122.333 11.7168H123.119C123.096 12.168 122.955 12.5804 122.695 12.9541C122.436 13.3232 122.089 13.6126 121.656 13.8223C121.228 14.0319 120.768 14.1367 120.275 14.1367C119.305 14.1367 118.535 13.7995 117.965 13.125C117.4 12.4505 117.117 11.5436 117.117 10.4043V10.1582C117.117 9.42904 117.245 8.78418 117.5 8.22363C117.755 7.66309 118.12 7.23014 118.594 6.9248C119.072 6.61947 119.631 6.4668 120.269 6.4668C121.08 6.4668 121.747 6.70833 122.271 7.19141C122.8 7.67448 123.083 8.31022 123.119 9.09863H122.333C122.297 8.51986 122.087 8.05273 121.704 7.69727C121.326 7.3418 120.847 7.16406 120.269 7.16406C119.53 7.16406 118.956 7.43066 118.546 7.96387C118.14 8.49707 117.938 9.24447 117.938 10.2061V10.4453C117.938 11.3887 118.14 12.1247 118.546 12.6533C118.956 13.182 119.533 13.4463 120.275 13.4463ZM130.153 6.60352V14H129.333V11.0195H127.036L125.231 14H124.329L126.188 10.917C125.683 10.7848 125.288 10.5296 125.006 10.1514C124.728 9.77311 124.589 9.3265 124.589 8.81152C124.589 8.1416 124.828 7.60612 125.307 7.20508C125.79 6.80404 126.441 6.60352 127.262 6.60352H130.153ZM125.409 8.8252C125.409 9.25814 125.546 9.61361 125.819 9.8916C126.097 10.1696 126.482 10.3132 126.975 10.3223H129.333V7.30078H127.241C126.672 7.30078 126.223 7.4375 125.895 7.71094C125.571 7.98438 125.409 8.35579 125.409 8.8252ZM135.854 14V6.60352H138.568C139.507 6.60352 140.227 6.77214 140.729 7.10938C141.23 7.44206 141.48 7.93197 141.48 8.5791C141.48 8.94824 141.369 9.27865 141.146 9.57031C140.922 9.85742 140.596 10.0671 140.168 10.1992C140.651 10.2904 141.038 10.4977 141.33 10.8213C141.626 11.1449 141.774 11.5208 141.774 11.9492C141.774 12.6009 141.533 13.1068 141.05 13.4668C140.571 13.8223 139.892 14 139.013 14H135.854ZM136.668 10.5957V13.3164H139.04C139.655 13.3164 140.129 13.1979 140.462 12.9609C140.795 12.724 140.961 12.3822 140.961 11.9355C140.961 11.5254 140.795 11.1995 140.462 10.958C140.129 10.7165 139.655 10.5957 139.04 10.5957H136.668ZM136.668 9.91211H138.739C140.024 9.89388 140.667 9.45638 140.667 8.59961C140.667 8.14844 140.489 7.82031 140.134 7.61523C139.783 7.4056 139.261 7.30078 138.568 7.30078H136.668V9.91211ZM149.738 13.4463C150.308 13.4463 150.784 13.2868 151.167 12.9678C151.554 12.6442 151.764 12.2272 151.796 11.7168H152.582C152.559 12.168 152.418 12.5804 152.158 12.9541C151.898 13.3232 151.552 13.6126 151.119 13.8223C150.691 14.0319 150.23 14.1367 149.738 14.1367C148.768 14.1367 147.997 13.7995 147.428 13.125C146.863 12.4505 146.58 11.5436 146.58 10.4043V10.1582C146.58 9.42904 146.708 8.78418 146.963 8.22363C147.218 7.66309 147.583 7.23014 148.057 6.9248C148.535 6.61947 149.093 6.4668 149.731 6.4668C150.543 6.4668 151.21 6.70833 151.734 7.19141C152.263 7.67448 152.546 8.31022 152.582 9.09863H151.796C151.759 8.51986 151.55 8.05273 151.167 7.69727C150.789 7.3418 150.31 7.16406 149.731 7.16406C148.993 7.16406 148.419 7.43066 148.009 7.96387C147.603 8.49707 147.4 9.24447 147.4 10.2061V10.4453C147.4 11.3887 147.603 12.1247 148.009 12.6533C148.419 13.182 148.995 13.4463 149.738 13.4463ZM157.087 14.1367C156.458 14.1367 155.888 13.9818 155.378 13.6719C154.872 13.362 154.478 12.9313 154.195 12.3799C153.913 11.8239 153.771 11.2018 153.771 10.5137V10.2197C153.771 9.50879 153.908 8.86849 154.182 8.29883C154.46 7.72917 154.845 7.28255 155.337 6.95898C155.829 6.63086 156.362 6.4668 156.937 6.4668C157.834 6.4668 158.545 6.77441 159.069 7.38965C159.598 8.00033 159.862 8.83659 159.862 9.89844V10.3564H154.585V10.5137C154.585 11.3522 154.824 12.0518 155.303 12.6123C155.786 13.1683 156.392 13.4463 157.121 13.4463C157.559 13.4463 157.944 13.3665 158.276 13.207C158.614 13.0475 158.919 12.7923 159.192 12.4414L159.705 12.8311C159.104 13.7015 158.231 14.1367 157.087 14.1367ZM156.937 7.16406C156.321 7.16406 155.802 7.38965 155.378 7.84082C154.959 8.29199 154.703 8.89811 154.612 9.65918H159.049V9.57031C159.026 8.85938 158.823 8.2806 158.44 7.83398C158.058 7.38737 157.556 7.16406 156.937 7.16406ZM165.55 12.8926L168.489 6.60352H169.501V14H168.681V7.92969L165.837 14H165.256L162.357 7.79297V14H161.544V6.60352H162.617L165.55 12.8926ZM172.598 9.29004H174.73C175.277 9.29004 175.756 9.3903 176.166 9.59082C176.581 9.78678 176.893 10.0602 177.103 10.4111C177.317 10.762 177.424 11.1699 177.424 11.6348C177.424 12.3503 177.178 12.9245 176.686 13.3574C176.198 13.7858 175.537 14 174.703 14H171.784V6.60352H172.598V9.29004ZM172.598 9.9873V13.3096H174.717C175.305 13.3096 175.765 13.1615 176.098 12.8652C176.435 12.569 176.604 12.1634 176.604 11.6484C176.604 11.1562 176.439 10.7598 176.111 10.459C175.788 10.1536 175.343 9.99642 174.778 9.9873H172.598ZM184.581 6.60352V14H183.761V11.0195H181.464L179.659 14H178.757L180.616 10.917C180.11 10.7848 179.716 10.5296 179.434 10.1514C179.156 9.77311 179.017 9.3265 179.017 8.81152C179.017 8.1416 179.256 7.60612 179.734 7.20508C180.217 6.80404 180.869 6.60352 181.689 6.60352H184.581ZM179.837 8.8252C179.837 9.25814 179.974 9.61361 180.247 9.8916C180.525 10.1696 180.91 10.3132 181.402 10.3223H183.761V7.30078H181.669C181.099 7.30078 180.65 7.4375 180.322 7.71094C179.999 7.98438 179.837 8.35579 179.837 8.8252ZM189.113 9.60449L191.109 6.60352H192.08L189.571 10.2334L192.189 14H191.226L189.12 10.8691L187.015 14H186.051L188.662 10.2334L186.153 6.60352H187.117L189.113 9.60449ZM199.736 13.4463C200.306 13.4463 200.782 13.2868 201.165 12.9678C201.552 12.6442 201.762 12.2272 201.794 11.7168H202.58C202.557 12.168 202.416 12.5804 202.156 12.9541C201.896 13.3232 201.55 13.6126 201.117 13.8223C200.689 14.0319 200.229 14.1367 199.736 14.1367C198.766 14.1367 197.995 13.7995 197.426 13.125C196.861 12.4505 196.578 11.5436 196.578 10.4043V10.1582C196.578 9.42904 196.706 8.78418 196.961 8.22363C197.216 7.66309 197.581 7.23014 198.055 6.9248C198.533 6.61947 199.091 6.4668 199.729 6.4668C200.541 6.4668 201.208 6.70833 201.732 7.19141C202.261 7.67448 202.544 8.31022 202.58 9.09863H201.794C201.757 8.51986 201.548 8.05273 201.165 7.69727C200.787 7.3418 200.308 7.16406 199.729 7.16406C198.991 7.16406 198.417 7.43066 198.007 7.96387C197.601 8.49707 197.398 9.24447 197.398 10.2061V10.4453C197.398 11.3887 197.601 12.1247 198.007 12.6533C198.417 13.182 198.993 13.4463 199.736 13.4463ZM207.454 13.3096L207.816 12.8379C208.391 12.0586 208.721 10.9193 208.808 9.41992L208.938 6.60352H213.306V13.3096H214.071V16.1738H213.258V14H207.7V16.1738H206.914L206.921 13.3096H207.454ZM208.397 13.3096H212.485V7.36914H209.717L209.628 9.29004C209.546 11.0537 209.136 12.3936 208.397 13.3096ZM218.515 14.1367C217.886 14.1367 217.316 13.9818 216.806 13.6719C216.3 13.362 215.906 12.9313 215.623 12.3799C215.34 11.8239 215.199 11.2018 215.199 10.5137V10.2197C215.199 9.50879 215.336 8.86849 215.609 8.29883C215.887 7.72917 216.272 7.28255 216.765 6.95898C217.257 6.63086 217.79 6.4668 218.364 6.4668C219.262 6.4668 219.973 6.77441 220.497 7.38965C221.026 8.00033 221.29 8.83659 221.29 9.89844V10.3564H216.013V10.5137C216.013 11.3522 216.252 12.0518 216.73 12.6123C217.214 13.1683 217.82 13.4463 218.549 13.4463C218.986 13.4463 219.371 13.3665 219.704 13.207C220.041 13.0475 220.347 12.7923 220.62 12.4414L221.133 12.8311C220.531 13.7015 219.659 14.1367 218.515 14.1367ZM218.364 7.16406C217.749 7.16406 217.229 7.38965 216.806 7.84082C216.386 8.29199 216.131 8.89811 216.04 9.65918H220.477V9.57031C220.454 8.85938 220.251 8.2806 219.868 7.83398C219.485 7.38737 218.984 7.16406 218.364 7.16406ZM228.112 7.30078H225.419V14H224.599V7.30078H222.008V6.60352H228.112V7.30078ZM230.361 9.29004H232.494C233.041 9.29004 233.52 9.3903 233.93 9.59082C234.344 9.78678 234.657 10.0602 234.866 10.4111C235.08 10.762 235.188 11.1699 235.188 11.6348C235.188 12.3503 234.941 12.9245 234.449 13.3574C233.962 13.7858 233.301 14 232.467 14H229.548V6.60352H230.361V9.29004ZM230.361 9.9873V13.3096H232.48C233.068 13.3096 233.529 13.1615 233.861 12.8652C234.199 12.569 234.367 12.1634 234.367 11.6484C234.367 11.1562 234.203 10.7598 233.875 10.459C233.551 10.1536 233.107 9.99642 232.542 9.9873H230.361ZM241.046 12.8926L243.985 6.60352H244.997V14H244.177V7.92969L241.333 14H240.752L237.854 7.79297V14H237.04V6.60352H238.113L241.046 12.8926ZM252.052 6.60352H252.872V14H252.052V7.92285L248.06 14H247.246V6.60352H248.06V12.6875L252.052 6.60352ZM97.9014 27.6035H98.7217V35H97.9014V28.9229L93.9092 35H93.0957V27.6035H93.9092V33.6875L97.9014 27.6035ZM106.604 27.6035V35H105.783V28.3076H102.755L102.625 31.0762C102.57 32.1016 102.468 32.8854 102.317 33.4277C102.167 33.9655 101.944 34.362 101.647 34.6172C101.351 34.8724 100.957 35 100.465 35H100.15V34.2754L100.403 34.2617C100.873 34.2526 101.21 34.0247 101.415 33.5781C101.62 33.1315 101.755 32.334 101.818 31.1855L101.969 27.6035H106.604ZM113.665 27.6035H114.485V35H113.665V28.9229L109.673 35H108.859V27.6035H109.673V33.6875L113.665 27.6035ZM119.913 34.3096L120.275 33.8379C120.85 33.0586 121.18 31.9193 121.267 30.4199L121.396 27.6035H125.765V34.3096H126.53V37.1738H125.717V35H120.159V37.1738H119.373L119.38 34.3096H119.913ZM120.856 34.3096H124.944V28.3691H122.176L122.087 30.29C122.005 32.0537 121.595 33.3936 120.856 34.3096ZM134.057 31.377C134.057 32.5299 133.801 33.446 133.291 34.125C132.781 34.7995 132.097 35.1367 131.24 35.1367C130.229 35.1367 129.454 34.7812 128.916 34.0703V37.8438H128.103V27.6035H128.861L128.902 28.6494C129.436 27.861 130.208 27.4668 131.22 27.4668C132.104 27.4668 132.797 27.8018 133.298 28.4717C133.804 29.1416 134.057 30.0713 134.057 31.2607V31.377ZM133.236 31.2334C133.236 30.29 133.043 29.5449 132.655 28.998C132.268 28.4512 131.728 28.1777 131.035 28.1777C130.534 28.1777 130.103 28.2985 129.743 28.54C129.383 28.7816 129.107 29.1325 128.916 29.5928V33.1406C129.112 33.5645 129.392 33.888 129.757 34.1113C130.121 34.3346 130.552 34.4463 131.049 34.4463C131.737 34.4463 132.272 34.1729 132.655 33.626C133.043 33.0745 133.236 32.277 133.236 31.2334ZM138.138 33.8242L140.298 27.6035H141.18L138.021 36.2578L137.857 36.6406C137.452 37.5384 136.825 37.9873 135.978 37.9873C135.782 37.9873 135.572 37.9554 135.349 37.8916L135.342 37.2148L135.766 37.2559C136.167 37.2559 136.49 37.1556 136.736 36.9551C136.987 36.7591 137.199 36.4196 137.372 35.9365L137.734 34.9385L134.945 27.6035H135.841L138.138 33.8242ZM147.059 28.3076H143.319V35H142.499V27.6035H147.059V28.3076ZM153.218 27.6035H154.038V35H153.218V28.9229L149.226 35H148.412V27.6035H149.226V33.6875L153.218 27.6035ZM160.327 33.8926L163.267 27.6035H164.278V35H163.458V28.9297L160.614 35H160.033L157.135 28.793V35H156.321V27.6035H157.395L160.327 33.8926ZM171.333 27.6035H172.153V35H171.333V28.9229L167.341 35H166.527V27.6035H167.341V33.6875L171.333 27.6035ZM183.405 31.582H182.421V35H181.601V31.582H180.623L177.889 35H176.85L179.912 31.2061L177.191 27.6035H178.183L180.609 30.8506H181.601V27.6035H182.421V30.8506H183.419L185.846 27.6035H186.851L184.116 31.2061L187.186 35H186.14L183.405 31.582ZM193.358 27.6035H194.179V35H193.358V28.9229L189.366 35H188.553V27.6035H189.366V33.6875L193.358 27.6035ZM196.462 35V27.6035H199.176C200.115 27.6035 200.835 27.7721 201.336 28.1094C201.837 28.4421 202.088 28.932 202.088 29.5791C202.088 29.9482 201.976 30.2786 201.753 30.5703C201.53 30.8574 201.204 31.0671 200.775 31.1992C201.258 31.2904 201.646 31.4977 201.938 31.8213C202.234 32.1449 202.382 32.5208 202.382 32.9492C202.382 33.6009 202.14 34.1068 201.657 34.4668C201.179 34.8223 200.5 35 199.62 35H196.462ZM197.275 31.5957V34.3164H199.647C200.263 34.3164 200.737 34.1979 201.069 33.9609C201.402 33.724 201.568 33.3822 201.568 32.9355C201.568 32.5254 201.402 32.1995 201.069 31.958C200.737 31.7165 200.263 31.5957 199.647 31.5957H197.275ZM197.275 30.9121H199.347C200.632 30.8939 201.274 30.4564 201.274 29.5996C201.274 29.1484 201.097 28.8203 200.741 28.6152C200.39 28.4056 199.868 28.3008 199.176 28.3008H197.275V30.9121ZM203.756 31.1924C203.756 30.4814 203.893 29.8411 204.166 29.2715C204.444 28.7018 204.834 28.2598 205.335 27.9453C205.841 27.6263 206.413 27.4668 207.051 27.4668C208.035 27.4668 208.833 27.8132 209.443 28.5059C210.054 29.194 210.359 30.1077 210.359 31.2471V31.418C210.359 32.1335 210.22 32.7783 209.942 33.3525C209.669 33.9222 209.282 34.362 208.78 34.6719C208.279 34.9818 207.707 35.1367 207.064 35.1367C206.085 35.1367 205.287 34.7926 204.672 34.1045C204.061 33.4118 203.756 32.4958 203.756 31.3564V31.1924ZM204.576 31.418C204.576 32.3021 204.804 33.029 205.26 33.5986C205.72 34.1637 206.322 34.4463 207.064 34.4463C207.803 34.4463 208.4 34.1637 208.855 33.5986C209.316 33.029 209.546 32.2793 209.546 31.3496V31.1924C209.546 30.6273 209.441 30.11 209.231 29.6406C209.022 29.1712 208.728 28.8089 208.35 28.5537C207.971 28.2939 207.538 28.1641 207.051 28.1641C206.322 28.1641 205.727 28.4512 205.267 29.0254C204.806 29.5951 204.576 30.3424 204.576 31.2676V31.418ZM217.216 28.3008H214.522V35H213.702V28.3008H211.111V27.6035H217.216V28.3008ZM224.243 35H223.423V31.6094H219.438V35H218.617V27.6035H219.438V30.9189H223.423V27.6035H224.243V35ZM227.34 30.29H229.473C230.02 30.29 230.498 30.3903 230.908 30.5908C231.323 30.7868 231.635 31.0602 231.845 31.4111C232.059 31.762 232.166 32.1699 232.166 32.6348C232.166 33.3503 231.92 33.9245 231.428 34.3574C230.94 34.7858 230.279 35 229.445 35H226.526V27.6035H227.34V30.29ZM227.34 30.9873V34.3096H229.459C230.047 34.3096 230.507 34.1615 230.84 33.8652C231.177 33.569 231.346 33.1634 231.346 32.6484C231.346 32.1562 231.182 31.7598 230.854 31.459C230.53 31.1536 230.086 30.9964 229.521 30.9873H227.34ZM234.675 35H233.854V27.6035H234.675V35ZM241.046 33.8926L243.985 27.6035H244.997V35H244.177V28.9297L241.333 35H240.752L237.854 28.793V35H237.04V27.6035H238.113L241.046 33.8926ZM252.052 27.6035H252.872V35H252.052V28.9229L248.06 35H247.246V27.6035H248.06V33.6875L252.052 27.6035Z" fill="white"/>
<circle cx="826.5" cy="341.5" r="7.5" fill="#A07B50"/>
<circle cx="261.5" cy="299.5" r="7.5" fill="#A07B50"/>
<circle cx="284.5" cy="13.5" r="7.5" fill="#A07B50"/>
<circle cx="861.5" cy="119.5" r="7.5" fill="#A07B50"/>
</svg>
